<svg id="App_Icon_Kit_A" data-name="App Icon Kit A" xmlns="http://www.w3.org/2000/svg" xmlns:xlink="http://www.w3.org/1999/xlink" viewBox="0 0 58 58"><defs><style>.cls-1{fill:url(#linear-gradient);}.cls-2{fill:#fff;}</style><linearGradient id="linear-gradient" x1="334.08" y1="689.92" x2="1221.92" y2="-197.92" gradientUnits="userSpaceOnUse"><stop offset="0" stop-color="#43c5e6"/><stop offset="1" stop-color="#ddf1f3"/></linearGradient><symbol id="Icon" data-name="Icon" viewBox="0 0 1024 1024"><path id="App_Icon_Placeholder" data-name="App Icon Placeholder" class="cls-1" d="M357,0H667C769.8,0,821.18,0,876.52,17.49a217.47,217.47,0,0,1,130,130C1024,202.83,1024,254.22,1024,357V667c0,102.8,0,154.19-17.5,209.53a217.43,217.43,0,0,1-130,130C821.18,1024,769.8,1024,667,1024H357c-102.79,0-154.17,0-209.51-17.5a217.43,217.43,0,0,1-130-130C0,821.18,0,769.79,0,667V357C0,254.22,0,202.83,17.5,147.48a217.47,217.47,0,0,1,130-130C202.82,0,254.2,0,357,0h0"/><g id="_1nIVNN.tif" data-name="1nIVNN.tif"><path class="cls-2" d="M652.23,486.31C527.67,485.9,454,381.51,482.9,283.46c6.11-20.71-5.07-31-25.3-24.19C404.85,277,365.47,310.68,340.38,360.55c-30.59,60.76-23.38,121.77-.65,182.73C380.92,653.73,439,755.44,501.33,854.94c11.43,18.26,24.12,17.87,35.59-1.73C571.66,793.87,608.18,735.36,639,674c26.6-53,47.07-109.23,68.67-164.64,8.88-22.79-.92-32.31-24.63-28C670.78,483.62,658.47,485.32,652.23,486.31ZM580.62,148.14c-4.59,0-9.17-.07-13.75,0-13.23.23-21.25,6.89-21.73,20.14s8.41,18,20.42,18.42c5.22.2,10.43.82,15.65,1.23,91.73,7.13,160.21,51.21,206.72,130.15,6.35,10.77,13.42,20.86,27.82,13,13.91-7.6,14-19.45,6.83-31.86C768.75,206,687.52,156.49,580.62,148.14Zm-12.9,72c-13.48.16-28.3,2-29,20.34-.67,18.05,13.57,19.52,27.58,19.75a152.91,152.91,0,0,1,23.42,2c60.49,10.35,106,42.31,136.92,95.29,10.18,17.43,21.7,21.29,32.32,10.93,10.47-10.21,7.26-21.06.79-32.11C717,263.24,652.6,225.8,567.72,220.1Zm-3.05,73.52c-15.83-1.41-31.42.57-32.78,19.28-1.42,19.68,15.35,18.56,29.21,19.68,47,3.8,82.82,25.55,105.75,67.28,6,11,14.16,18.28,26.78,11.42,12.43-6.77,14.31-17.86,7.61-30.13C671.68,327,626,297.93,564.67,293.62ZM554.6,361.85c-12.48,1.35-27.81,1.92-28.49,20.85s13.54,19,27.37,19.11c26.29.19,44.41,13.31,55.72,36.55,5.13,10.53,12.68,17.85,24.83,12.36,13.13-5.94,14.57-16.84,9.69-29.76C631.08,387.53,593.19,361.75,554.6,361.85Z"/></g></symbol></defs><title>Settings Icon - 58x58</title><g id="Settings_Icon_-_Preview_Sizes" data-name="Settings Icon - Preview Sizes"><g id="_58" data-name="58"><use width="1024" height="1024" transform="translate(0 0.03) scale(0.06)" xlink:href="#Icon"/></g></g></svg>