<svg id="App_Icon_Kit_A" data-name="App Icon Kit A" xmlns="http://www.w3.org/2000/svg" xmlns:xlink="http://www.w3.org/1999/xlink" viewBox="0 0 1024 1024"><defs><style>.cls-1{fill:url(#linear-gradient);}</style><linearGradient id="linear-gradient" x1="387.48" y1="587.87" x2="677.7" y2="210.3" gradientUnits="userSpaceOnUse"><stop offset="0" stop-color="#43c5e6"/><stop offset="1" stop-color="#ddf1f3"/></linearGradient><symbol id="Icon" data-name="Icon" viewBox="0 0 976 920.9"><g id="_1nIVNN.tif" data-name="1nIVNN.tif"><path class="cls-1" d="M628.23,434.76C503.67,434.35,430,330,458.9,231.91c6.11-20.71-5.07-31-25.3-24.19C380.85,225.46,341.47,259.14,316.38,309c-30.59,60.76-23.38,121.77-.65,182.73C356.92,602.18,415,703.89,477.33,803.39c11.43,18.26,24.12,17.87,35.59-1.73,34.74-59.34,71.26-117.85,102-179.22,26.6-53,47.07-109.23,68.67-164.64,8.88-22.79-.92-32.31-24.63-28C646.78,432.08,634.47,433.78,628.23,434.76ZM556.62,96.59c-4.59,0-9.17-.06-13.75,0-13.23.23-21.25,6.89-21.73,20.15s8.41,17.94,20.42,18.41c5.22.21,10.43.83,15.65,1.23,91.73,7.13,160.21,51.21,206.72,130.15,6.35,10.77,13.42,20.86,27.82,13,13.91-7.6,14-19.45,6.83-31.86C744.75,154.42,663.52,104.94,556.62,96.59Zm-12.9,72c-13.48.17-28.3,2-29,20.34-.67,18.06,13.57,19.52,27.58,19.75a154.18,154.18,0,0,1,23.42,2c60.49,10.35,106,42.32,136.92,95.29,10.18,17.43,21.7,21.29,32.32,10.93,10.47-10.21,7.26-21.06.79-32.1C693,211.69,628.6,174.25,543.72,168.55Zm-3.05,73.52c-15.83-1.4-31.42.57-32.78,19.28C506.47,281,523.24,279.91,537.1,281c47,3.8,82.82,25.55,105.75,67.28,6,11,14.16,18.28,26.78,11.42,12.43-6.76,14.31-17.86,7.61-30.13C647.68,275.41,602,246.38,540.67,242.07ZM530.6,310.3c-12.48,1.36-27.81,1.92-28.49,20.86s13.54,19,27.37,19.1c26.29.19,44.41,13.31,55.72,36.55,5.13,10.53,12.68,17.85,24.83,12.36,13.13-5.94,14.57-16.84,9.69-29.76C607.08,336,569.19,310.2,530.6,310.3Z"/></g></symbol></defs><title>App Icon Main - 1024x1024</title><g id="App_Icon_and_Badge_-_Main" data-name="App Icon and Badge - Main"><g id="_1024" data-name="1024"><use id="_YOUR_ICON_HERE_" data-name="[YOUR ICON HERE]" width="976" height="920.9" transform="translate(24 51.55)" xlink:href="#Icon"/></g></g></svg>