<svg id="App_Icon_Kit_A" data-name="App Icon Kit A" xmlns="http://www.w3.org/2000/svg" xmlns:xlink="http://www.w3.org/1999/xlink" viewBox="0 0 1024 1024"><defs><style>.cls-1{fill:url(#linear-gradient);}</style><linearGradient id="linear-gradient" x1="387.48" y1="587.87" x2="677.703" y2="210.299" gradientUnits="userSpaceOnUse"><stop offset="0" stop-color="#43c5e6"/><stop offset="1" stop-color="#ddf1f3"/></linearGradient><symbol id="Icon" data-name="Icon" viewBox="0 0 976 920.903"><g id="_1nIVNN.tif" data-name="1nIVNN.tif"><path class="cls-1" d="M628.234,434.764C503.671,434.348,429.963,329.958,458.9,231.913c6.112-20.709-5.074-30.991-25.3-24.189C380.85,225.465,341.475,259.135,316.376,309,285.8,369.759,293,430.767,315.735,491.73c41.189,110.449,99.3,212.158,161.59,311.657,11.433,18.264,24.128,17.875,35.6-1.723,34.735-59.339,71.253-117.855,102.032-179.223,26.6-53.034,47.076-109.227,68.673-164.641,8.884-22.793-.918-32.31-24.63-27.963C646.784,432.077,634.469,433.776,628.234,434.764ZM556.616,96.592c-4.581,0-9.163-.066-13.742.012-13.238.228-21.258,6.886-21.731,20.142-.479,13.39,8.4,17.944,20.418,18.415,5.223.205,10.429.825,15.644,1.23,91.733,7.129,160.214,51.206,206.728,130.147,6.348,10.772,13.42,20.865,27.816,13,13.91-7.6,13.991-19.446,6.83-31.852C744.749,154.421,663.521,104.941,556.616,96.592Zm-12.892,71.963c-13.483.161-28.307,1.99-28.99,20.335-.673,18.056,13.565,19.523,27.574,19.748a154.04,154.04,0,0,1,23.421,1.965c60.488,10.351,106,42.313,136.924,95.288,10.174,17.428,21.694,21.287,32.312,10.931,10.471-10.212,7.263-21.065.792-32.106C692.96,211.69,628.6,174.249,543.724,168.555Zm-3.052,73.515c-15.828-1.4-31.423.571-32.78,19.28-1.427,19.681,15.347,18.564,29.209,19.684,47,3.8,82.823,25.547,105.75,67.281,6.038,10.992,14.163,18.278,26.777,11.416,12.435-6.766,14.308-17.862,7.613-30.132C647.677,275.411,601.988,246.382,540.672,242.07ZM530.6,310.3c-12.48,1.355-27.8,1.92-28.487,20.856-.688,19.049,13.541,19,27.375,19.1,26.284.195,44.406,13.311,55.72,36.554,5.126,10.531,12.68,17.845,24.824,12.354,13.129-5.936,14.572-16.84,9.691-29.756C607.084,335.978,569.187,310.2,530.6,310.3Z"/></g></symbol></defs><title>App Icon Main - 1024x1024</title><g id="App_Icon_and_Badge_-_Main" data-name="App Icon and Badge - Main"><g id="_1024" data-name="1024"><use id="_YOUR_ICON_HERE_" data-name="[YOUR ICON HERE]" width="976" height="920.903" transform="translate(24 51.548)" xlink:href="#Icon"/></g></g></svg>