<svg id="Layer_1" data-name="Layer 1" xmlns="http://www.w3.org/2000/svg" xmlns:xlink="http://www.w3.org/1999/xlink" viewBox="0 0 150 150"><defs><style>.cls-1{fill:url(#linear-gradient);}</style><linearGradient id="linear-gradient" x1="51.75" y1="97.559" x2="155.56" y2="-6.251" gradientUnits="userSpaceOnUse"><stop offset="0" stop-color="#42c4e6"/><stop offset="1" stop-color="#ddf0f2"/></linearGradient></defs><title>welcome-icon-tracker</title><path class="cls-1" d="M102.985,102.761q-18.962,19.1-37.913,38.214A19.88,19.88,0,0,1,50.948,147.2a19.289,19.289,0,0,1-10.139-2.564A22.885,22.885,0,0,1,36,140.918Q22.306,127.34,8.6,113.77A19.8,19.8,0,0,1,2.413,97.839,18.586,18.586,0,0,1,6.284,87.422a33.4,33.4,0,0,1,2.647-3.016q37.4-37.8,74.812-75.577A21.5,21.5,0,0,1,92.3,3.258a19.921,19.921,0,0,1,20.513,4.849c9.314,9.228,18.667,18.415,27.957,27.667a19.584,19.584,0,0,1,5.811,17.9,17.416,17.416,0,0,1-4.59,9.525q-9.969,10.284-20.078,20.433C115.6,90,109.233,96.322,102.889,102.665Zm24.776-56.308a19.028,19.028,0,0,0-2.9-1.7,8.726,8.726,0,0,0-10.611,3.53,8.2,8.2,0,0,0-.508,8.8,7.609,7.609,0,0,0,6.37,4.27,9.022,9.022,0,0,0,7.651-14.9ZM19.9,99.286a4.188,4.188,0,1,0-6.015.1A4.259,4.259,0,0,0,19.9,99.286Z"/></svg>