<svg id="Layer_1" data-name="Layer 1" xmlns="http://www.w3.org/2000/svg" xmlns:xlink="http://www.w3.org/1999/xlink" viewBox="0 0 150 150"><defs><style>.cls-1{fill:url(#linear-gradient);}</style><linearGradient id="linear-gradient" x1="49.095" y1="101.622" x2="107.353" y2="25.83" gradientUnits="userSpaceOnUse"><stop offset="0" stop-color="#43c5e6"/><stop offset="1" stop-color="#ddf1f3"/></linearGradient></defs><title>welcome-icon-iLost</title><path class="cls-1" d="M97.423,70.888c-25-.083-39.8-21.038-33.991-40.719,1.227-4.157-1.018-6.221-5.078-4.856a39.48,39.48,0,0,0-23.532,20.33c-6.138,12.2-4.692,24.443-.129,36.681,8.269,22.171,19.934,42.587,32.438,62.56,2.294,3.666,4.843,3.588,7.146-.346,6.972-11.911,14.3-23.657,20.481-35.976,5.34-10.646,9.45-21.926,13.785-33.05,1.783-4.575-.184-6.485-4.944-5.613C101.147,70.349,98.675,70.69,97.423,70.888ZM83.047,3.005c-.92,0-1.839-.013-2.759,0-2.657.045-4.267,1.382-4.362,4.043-.1,2.688,1.687,3.6,4.1,3.7,1.048.042,2.093.166,3.14.247,18.414,1.431,32.161,10.279,41.5,26.125,1.274,2.163,2.694,4.189,5.584,2.61,2.792-1.526,2.808-3.9,1.371-6.394C120.812,14.614,104.507,4.681,83.047,3.005ZM80.459,17.451c-2.706.032-5.682.4-5.819,4.082-.135,3.624,2.723,3.919,5.535,3.964a30.922,30.922,0,0,1,4.7.394c12.142,2.078,21.278,8.494,27.486,19.128,2.042,3.5,4.355,4.273,6.486,2.194,2.1-2.05,1.458-4.228.159-6.445C110.416,26.109,97.5,18.594,80.459,17.451Zm-.613,14.757c-3.177-.282-6.307.115-6.58,3.87-.286,3.951,3.081,3.726,5.864,3.951,9.434.763,16.625,5.128,21.227,13.506,1.212,2.206,2.843,3.669,5.375,2.292,2.5-1.359,2.873-3.586,1.529-6.049C101.326,38.9,92.155,33.073,79.846,32.208ZM77.824,45.9c-2.5.272-5.581.386-5.719,4.187-.138,3.824,2.719,3.814,5.5,3.834,5.276.039,8.914,2.672,11.185,7.338,1.029,2.114,2.545,3.582,4.983,2.48,2.635-1.192,2.925-3.381,1.945-5.973C93.178,51.059,85.571,45.884,77.824,45.9Z"/></svg>